# xmcd CD database file
#
# Track frame offsets:
#	150
#	17131
#	33636
#	50282
#	69461
#	88334
#	110442
#	131050
#	151597
#	171364
#	187109
#	206831
#	225711
#	247826
#	263049
#	280161
#	297299
#
# Disc length: 4325 seconds
#
# Revision: 0
# Processed by: cddbd v1.5.2PL0 Copyright (c) Steve Scherf et al.
# Submitted via: CDex 2.23
#
DISCID=f610e311
DTITLE=Max Mutzke - Durch Einander
DYEAR=2012
DGENRE=Jazz
TTITLE0=Max Mutzke - Telefon
TTITLE1=Max Mutzke feat. Menzel Mutzke - Vielleicht
TTITLE2=Max Mutzke feat. Bruno Mueller - Max Mutzke - Weil ich dich liebe
TTITLE3=Max Mutzke - Creep
TTITLE4=Max Mutzke - Empire State Of Mind
TTITLE5=Max Mutzke feat. Christian Neander - Ohne Dich
TTITLE6=Max Mutzke feat. Wigald Boning - Sommerregen
TTITLE7=Max Mutzke feat. Klaus Doldinger - Singing My Song For You
TTITLE8=Max Mutzke feat. Cassandra Steen - Me and Mrs Jones
TTITLE9=Max Mutzke feat. Goetz Alsmann - Du und ich
TTITLE10=Max Mutzke - Marie
TTITLE11=Max Mutzke - You Are So Beautiful
TTITLE12=Max Mutzke feat. Nils Lansgren - What's Going On
TTITLE13=Max Mutzke feat. Thomas D - Du bist zu sexy
TTITLE14=Max Mutzke - Michelle
TTITLE15=Max Mutzke feat. Menzel Mutzke - Max Mutzke - Song fuer Dich
TTITLE16=Max Mutzke feat. Sebastian Studnitzky - Durcheinander
EXTD=YEAR: 2012
EXTT0=
EXTT1=
EXTT2=
EXTT3=
EXTT4=
EXTT5=
EXTT6=
EXTT7=
EXTT8=
EXTT9=
EXTT10=
EXTT11=
EXTT12=
EXTT13=
EXTT14=
EXTT15=
EXTT16=
PLAYORDER=
